# xmcd
#
# Track frame offsets:
#	150
#	16987
#	48237
#	71525
#	116770
#	157397
#	179567
#	200472
#	238262
#	269405
#	299282
#
# Disc length: 4210
#
# Revision: 11
# Processed by: cddbd v1.5.1PL0 Copyright (c) Steve Scherf et al.
# Submitted via: EasyCDDAExtractor 6.5.0.1
# Normalized: r10:DSETVAR1
#
DISCID=aa10700b
DTITLE=Various Artist - Behind The Sun [CK 61086]
DYEAR=2000
DGENRE=Electronic
TTITLE0=Chicane - Overture(Behind The Sun US CD Version)
TTITLE1=Chicane - Low Sun(Behind The Sun US CD Version)
TTITLE2=Chicane And Tracy Ackerman - No Ordinary Morning(Behind The Sun US CD Version)
TTITLE3=Chicane And Maire Brennan - Saltwater(Original Mix)(Behind The Sun US CD Version)
TTITLE4=Chicane - Halcyon(Behind The Sun US CD Version)
TTITLE5=Chicane - Autumn Tactics(Behind The Sun US CD Version)
TTITLE6=Chicane - Overlap(Behind The Sun US CD Version)
TTITLE7=Chicane Featuring Bryan Adams - Don't Give Up(Behind The Sun US CD Version)
TTITLE8=Chicane And Maire Brennan - Saltwater(The Thrillseekers Remix)(Behind The Sun US CD Version)
TTITLE9=Chicane - Andromeda(Behind The Sun US CD Version)
TTITLE10=Chicane Featuring Bryan Adams - Don't Give Up(Original Radio Edit)(Behind The Sun US CD Version)
EXTD=
EXTT0=
EXTT1=
EXTT2=
EXTT3=
EXTT4=
EXTT5=
EXTT6=
EXTT7=
EXTT8=
EXTT9=
EXTT10=
PLAYORDER=
